<?xml version="1.0" encoding="utf-8"?>
<!-- Generator: Adobe Illustrator 22.1.0, SVG Export Plug-In . SVG Version: 6.00 Build 0)  -->
<svg version="1.1" id="apartment" xmlns="http://www.w3.org/2000/svg" xmlns:xlink="http://www.w3.org/1999/xlink" x="0px" y="0px"
	 viewBox="0 0 600 600" style="enable-background:new 0 0 600 600;" xml:space="preserve">
<style type="text/css">
	.st27{fill:none;stroke:#0C0C0C;stroke-width:9;stroke-linecap:round;stroke-linejoin:round;stroke-miterlimit:10;}
	.st28{fill:none;stroke:#0C0C0C;stroke-width:12;stroke-linecap:round;stroke-linejoin:round;stroke-miterlimit:10;}
	.st29{fill:none;stroke:#0C0C0C;stroke-width:18;stroke-linecap:round;stroke-linejoin:round;stroke-miterlimit:10;}
	.st30{fill:none;stroke:#0C0C0C;stroke-width:8;stroke-linecap:round;stroke-linejoin:round;stroke-miterlimit:10;}

</style>

<g id="apartment">
	<polyline class="st27" points="345,549 341,238 548,288 548,549 347.5,549 197,549 198,407 342,327 	"/>
	<line class="st27" x1="593" y1="300" x2="292" y2="225"/>
	<line class="st27" x1="337" y1="330" x2="163" y2="426"/>
	<line class="st28" x1="382" y1="356" x2="422" y2="356"/>
	<line class="st28" x1="464" y1="447" x2="504" y2="447"/>
	<line class="st28" x1="464" y1="402" x2="504" y2="402"/>
	<line class="st28" x1="382" y1="402" x2="422" y2="402"/>
	<line class="st28" x1="464" y1="356" x2="504" y2="356"/>
	<polyline class="st28" points="382,545 382,447 439,447 439,545 	"/>
	<line class="st29" x1="267" y1="412" x2="267" y2="412"/>
	<polyline class="st28" points="228,545 228,447 310,447 310,545 	"/>
	<line class="st27" x1="618.5" y1="548.5" x2="523.5" y2="548.5"/>
	<line class="st27" x1="652.5" y1="548.5" x2="678.5" y2="548.5"/>
	<line class="st27" x1="241.5" y1="581.5" x2="76.5" y2="581.5"/>
	<line class="st27" x1="361.5" y1="581.5" x2="297.5" y2="581.5"/>
	<line class="st30" x1="87.8" y1="293.1" x2="114.2" y2="262.9"/>
	<line class="st30" x1="85.6" y1="265.3" x2="116.1" y2="291.2"/>
	<line class="st30" x1="259" y1="139" x2="299" y2="139"/>
	<line class="st30" x1="278.4" y1="119" x2="279" y2="159"/>
	<line class="st30" x1="556.9" y1="204.3" x2="585.1" y2="175.8"/>
	<line class="st30" x1="556.4" y1="176.4" x2="585.2" y2="204.1"/>
	<circle class="st30" cx="203.5" cy="293.5" r="15.5"/>
	<circle class="st30" cx="416.5" cy="147.5" r="14.5"/>
	
</g>
</svg>
