<?xml version="1.0" encoding="utf-8"?>
<!-- Generator: Adobe Illustrator 22.1.0, SVG Export Plug-In . SVG Version: 6.00 Build 0)  -->
<svg version="1.1" id="Layer_1" xmlns="http://www.w3.org/2000/svg" xmlns:xlink="http://www.w3.org/1999/xlink" x="0px" y="0px"
	 viewBox="0 0 600 600" style="enable-background:new 0 0 600 600;" xml:space="preserve">
<style type="text/css">
	.column-st16{fill:none;stroke:#0C0C0C;stroke-width:8;stroke-linecap:round;stroke-linejoin:round;stroke-miterlimit:10;}
	.column-st19{fill:#0C0C0C;}
	.column-st24{fill:#C7AD8D;stroke:#000000;stroke-width:7;stroke-linecap:round;stroke-linejoin:round;stroke-miterlimit:10;}
	.column-st25{fill:#FBB94E;}
	.column-st26{fill:#C7AD8D;stroke:#0F0F0F;stroke-width:10;stroke-miterlimit:10;}
	.column-st27{fill:#C7AD8D;}
	.column-st28{fill:none;stroke:#FFFFFF;stroke-width:20;stroke-linecap:round;stroke-linejoin:round;stroke-miterlimit:10;}
	.column-st29{fill:none;stroke:#FFFFFF;stroke-width:20;stroke-linecap:round;stroke-linejoin:round;stroke-miterlimit:2;}
	.column-st30{fill:none;stroke:#FFFFFF;stroke-width:28;stroke-linecap:round;stroke-linejoin:round;stroke-miterlimit:10;}
	.column-st31{fill:none;stroke:#FFFFFF;stroke-width:22;stroke-linecap:round;stroke-miterlimit:10;}
	.column-st32{fill:#A79077;}
	.column-st33{fill:none;stroke:#000000;stroke-width:8;stroke-linecap:round;stroke-linejoin:round;stroke-miterlimit:10;}
	.column-st34{fill:none;stroke:#0C0C0C;stroke-width:5;stroke-linecap:round;stroke-linejoin:round;stroke-miterlimit:10;}
</style>
<g id="column">
	<path class="column-st24" d="M117.5,199.5L117,375.4c0,5.1,2.3,9.9,6.2,13.2c13.2,10.9,46.5,25.9,95.3,25.9c47.4,0,80.6-10.5,94.3-20
		c4.5-3.1,7.2-8.3,7.2-13.8l0.5-181.3"/>
	<path class="column-st24" d="M117.5,251.5c0,0,27,25,101,24s102-24,102-24"/>
	<path class="column-st24" d="M117.5,297.5c0,0,27,25,101,24s102-24,102-24"/>
	<path class="column-st24" d="M117.5,342.5c0,0,27,25,101,24s102-24,102-24"/>
	<g>
		<path class="column-st25" d="M218.5,222.5c-55.8,0-95.8-10.7-102.2-21.1c-0.5-0.8-0.8-1.6-0.8-2.4c0-9.8,39.2-23.5,103-23.5
			s103,13.7,103,23.5S282.3,222.5,218.5,222.5z"/>
		<path d="M218.5,179c27.7,0,53.6,2.7,73.2,7.6c21.4,5.4,26.3,11.2,26.3,12.4c-0.1,1.2-4.9,7.1-26.3,12.4
			c-19.5,4.9-45.5,7.6-73.2,7.6c-25.1,0-49.2-2.3-68.1-6.4c-19.7-4.3-29.1-9.7-31.2-13.1c-0.2-0.4-0.2-0.5-0.2-0.5
			c0.1-1.2,4.9-7.1,26.3-12.4C164.9,181.7,190.8,179,218.5,179 M218.5,172c-58.8,0-106.5,12.1-106.5,27c0,1.4,0.4,2.8,1.3,4.2
			c8,12.9,52,22.8,105.2,22.8c58.8,0,106.5-12.1,106.5-27S277.3,172,218.5,172L218.5,172z"/>
	</g>
	<path class="column-st26" d="M219.5,318.5L219,422.8c0,3,2.3,5.9,6.2,7.8c13.2,6.5,46.6,22.9,95.3,22.9c47.3,0,80.2-13.7,93.8-19.4
		c4.5-1.9,7.2-4.9,7.2-8.2l0.5-107.5"/>
	<path class="column-st26" d="M219.5,373.5c0,0,27,25,101,24s102-24,102-24"/>
	<g>
		<path class="column-st27" d="M320.5,345.5c-55.8,0-95.8-10.7-102.2-21.1c-0.5-0.8-0.8-1.6-0.8-2.4c0-9.8,39.2-23.5,103-23.5
			s103,13.7,103,23.5S384.3,345.5,320.5,345.5z"/>
		<path d="M320.5,302c27.7,0,53.6,2.7,73.2,7.6c21.4,5.4,26.3,11.2,26.3,12.4c-0.1,1.2-4.9,7.1-26.3,12.4
			c-19.5,4.9-45.5,7.6-73.2,7.6c-25.1,0-49.2-2.3-68.1-6.4c-19.7-4.3-29.1-9.7-31.2-13.1c-0.2-0.4-0.2-0.5-0.2-0.5
			c0.1-1.2,4.9-7.1,26.3-12.4C266.9,304.7,292.8,302,320.5,302 M320.5,295c-58.8,0-106.5,12.1-106.5,27c0,1.4,0.4,2.8,1.3,4.2
			c8,12.9,52,22.8,105.2,22.8c58.8,0,106.5-12.1,106.5-27S379.3,295,320.5,295L320.5,295z"/>
	</g>
	<line class="column-st28" x1="350" y1="360" x2="350" y2="381"/>
	<line class="column-st29" x1="350" y1="411" x2="350" y2="435"/>
	<line class="column-st30" x1="255" y1="239" x2="255" y2="254"/>
	<line class="column-st31" x1="262" y1="287" x2="250.7" y2="288.6"/>
	<path class="column-st32" d="M122,210.4l30.7,9.8L152,264c0,0-15-5-19-7s-12-7-12-7l-0.5-38.5"/>
	<path class="column-st32" d="M124,260l7,4l7,3l15,5l-1,38c0,0-15-4-19-6s-12-7-12-7v-39"/>
	<path class="column-st32" d="M121,304l8,5l10,4l13,4v38c0,0-15-4-19-6s-12-7-12-7l-0.5-38.5"/>
	<path class="column-st32" d="M122,350.4l31,13.6l-1,36c0,0-17.1-7.8-21-10c-9-5-10-11-10-11l-0.5-27.5"/>
	<line class="column-st33" x1="422" y1="432" x2="562" y2="432"/>
	<line class="column-st33" x1="594" y1="432" x2="626" y2="432"/>
	<line class="column-st33" x1="112" y1="375" x2="79" y2="375"/>
	<line class="column-st33" x1="50" y1="411" x2="136" y2="411"/>

	<line class="column-st33 column-anim" x1="422" y1="284" x2="422" y2="254"/>
	<line class="column-st33 column-anim" x1="422" y1="217" x2="422" y2="134"/>
	<line class="column-st33 column-anim" x1="364" y1="148" x2="364" y2="56"/>
	<line class="column-st33 column-anim" x1="421" y1="135" x2="402" y2="156"/>
	<line class="column-st33 column-anim" x1="423" y1="135" x2="442" y2="156"/>
	<line class="column-st33 column-anim" x1="363" y1="57" x2="344" y2="78"/>
	<line class="column-st33 column-anim" x1="365" y1="57" x2="384" y2="78"/>
	<g>
		<path class="column-st19" d="M218.5,84.3L235.2,97h-33.3L218.5,84.3 M218.5,79.3L190,101h57L218.5,79.3L218.5,79.3z"/>
	</g>
	<g>
		<path class="column-st19" d="M305,45.8l8.1,6.2h-16.2L305,45.8 M305,43.3L291,54h28L305,43.3L305,43.3z"/>
	</g>
	<line class="column-st16" x1="291" y1="116" x2="321.1" y2="143.9"/>
	<line class="column-st16" x1="319.6" y1="114.5" x2="292.1" y2="145"/>
	<line class="column-st16" x1="80.3" y1="41" x2="78.3" y2="93.9"/>
	<line class="column-st16" x1="105.8" y1="67.7" x2="52.8" y2="66.4"/>
	<circle class="column-st34" cx="38.5" cy="171.5" r="9.5"/>
</g>

</svg>
