<?xml version="1.0" encoding="utf-8"?>
<!-- Generator: Adobe Illustrator 22.1.0, SVG Export Plug-In . SVG Version: 6.00 Build 0)  -->
<svg version="1.1" id="house" xmlns="http://www.w3.org/2000/svg" xmlns:xlink="http://www.w3.org/1999/xlink" x="0px" y="0px"
	 viewBox="0 0 700 700" style="enable-background:new 0 0 700 700;" xml:space="preserve">
<style type="text/css">
	.st21{fill:#0C0C0C;}
	.st22{fill:none;stroke:#0C0C0C;stroke-width:9;stroke-linecap:round;stroke-linejoin:round;stroke-miterlimit:10;}
	.st23{fill:none;stroke:#000000;stroke-width:7;stroke-linecap:round;stroke-linejoin:round;stroke-miterlimit:10;}
	.st24{fill:none;stroke:#0C0C0C;stroke-width:10;stroke-linecap:round;stroke-linejoin:round;stroke-miterlimit:10;}
	.st25{fill:none;stroke:#0C0C0C;stroke-width:6;stroke-linecap:round;stroke-linejoin:round;stroke-miterlimit:10;}
	.st26{fill:none;stroke:#0C0C0C;stroke-width:8;stroke-linecap:round;stroke-linejoin:round;stroke-miterlimit:10;}
</style>

<g>
	<g>
		<path class="st21" d="M342,160.6L514.4,292H169.6L342,160.6 M342,148L140,302h404L342,148L342,148z"/>
	</g>
	<g>
		<path class="st21" d="M342,220c12.1,0,22,9.9,22,22s-9.9,22-22,22s-22-9.9-22-22S329.9,220,342,220 M342,210
			c-17.7,0-32,14.3-32,32s14.3,32,32,32s32-14.3,32-32S359.7,210,342,210L342,210z"/>
	</g>
	<g>
		<path d="M240,331v160h-20V331H240 M240.8,321h-21.7c-5.1,0-9.2,4.1-9.2,9.2v161.7c0,5.1,4.1,9.2,9.2,9.2h21.7
			c5.1,0,9.2-4.1,9.2-9.2V330.2C250,325.1,245.9,321,240.8,321L240.8,321z"/>
	</g>
	<g>
		<path d="M464.5,331.5v160h-20v-160H464.5 M464.7,321.5h-20.3c-5.4,0-9.8,4.4-9.8,9.8v160.3c0,5.4,4.4,9.8,9.8,9.8h20.3
			c5.4,0,9.8-4.4,9.8-9.8V331.3C474.5,325.9,470.1,321.5,464.7,321.5L464.7,321.5z"/>
	</g>
	<g>
		<path d="M387.5,331.5v160h-20v-160H387.5 M388.7,321.5h-22.3c-4.9,0-8.8,4-8.8,8.8v162.3c0,4.9,4,8.8,8.8,8.8h22.3
			c4.9,0,8.8-4,8.8-8.8V330.3C397.5,325.5,393.5,321.5,388.7,321.5L388.7,321.5z"/>
	</g>
	<g>
		<path d="M314.5,331.5v160h-20v-160H314.5 M315.3,321.5h-21.7c-5.1,0-9.2,4.1-9.2,9.2v161.7c0,5.1,4.1,9.2,9.2,9.2h21.7
			c5.1,0,9.2-4.1,9.2-9.2V330.7C324.5,325.6,320.4,321.5,315.3,321.5L315.3,321.5z"/>
	</g>
	<line class="st22" x1="546" y1="522" x2="134" y2="520"/>
	<line class="st23" x1="112" y1="540" x2="572" y2="540"/>
	<line class="st23" x1="593.5" y1="559.5" x2="91.5" y2="559.5"/>
	<g>
		<path class="st21" d="M118,360c23.2,0,42,18.8,42,42s-18.8,42-42,42s-42-18.8-42-42S94.8,360,118,360 M118,350
			c-28.7,0-52,23.3-52,52s23.3,52,52,52s52-23.3,52-52S146.7,350,118,350L118,350z"/>
	</g>
	<g>
		<path class="st21" d="M557.5,434c14.1,0,25.5,11.4,25.5,25.5S571.6,485,557.5,485S532,473.6,532,459.5S543.4,434,557.5,434
			 M557.5,424c-19.6,0-35.5,15.9-35.5,35.5s15.9,35.5,35.5,35.5s35.5-15.9,35.5-35.5S577.1,424,557.5,424L557.5,424z"/>
	</g>
	<g>
		<path class="st21" d="M588,356c5.5,0,10,4.5,10,10s-4.5,10-10,10s-10-4.5-10-10S582.5,356,588,356 M588,350c-8.8,0-16,7.2-16,16
			s7.2,16,16,16s16-7.2,16-16S596.8,350,588,350L588,350z"/>
	</g>
	<g>
		<line class="st24" x1="662" y1="260" x2="622" y2="302"/>
	</g>
	<line class="st24" x1="557" y1="198" x2="557" y2="260"/>
	<line class="st24" x1="30" y1="301" x2="66" y2="340"/>
	<line class="st24" x1="20" y1="402" x2="53" y2="402"/>
	<line class="st24" x1="51" y1="505" x2="91" y2="459"/>
	<circle class="st24" cx="95" cy="278" r="23"/>
	<circle class="st25" cx="151" cy="333" r="11"/>
	<line class="st26 houseParm" x1="504" y1="349" x2="544" y2="349"/>
	<line class="st26 houseParm" x1="523.4" y1="329" x2="524" y2="369"/>
	<line class="st26 houseParm" x1="142" y1="144.5" x2="180.9" y2="180.5"/>
	<line class="st26 houseParm" x1="178.9" y1="142.5" x2="143.5" y2="181.9"/>
	<g>
		<path class="st21" d="M508,152c5.5,0,10,4.5,10,10s-4.5,10-10,10s-10-4.5-10-10S502.5,152,508,152 M508,146c-8.8,0-16,7.2-16,16
			s7.2,16,16,16s16-7.2,16-16S516.8,146,508,146L508,146z"/>
	</g>
</g>

</svg>
