<?xml version="1.0" encoding="utf-8"?>
<!-- Generator: Adobe Illustrator 22.1.0, SVG Export Plug-In . SVG Version: 6.00 Build 0)  -->
<svg version="1.1" id="Layer_1" xmlns="http://www.w3.org/2000/svg" xmlns:xlink="http://www.w3.org/1999/xlink" x="0px" y="0px"
	 viewBox="0 0 411 700" style="enable-background:new 0 0 411 700;" xml:space="preserve">
<style type="text/css">
	.st51{fill:#FFFFFF;stroke:#000000;stroke-width:7;stroke-miterlimit:10;}
	.st52{fill:none;stroke:#1E1E1E;stroke-width:6;stroke-miterlimit:10;}
	.st53{fill:#FFFFFF;stroke:#1E1E1E;stroke-width:6;stroke-miterlimit:10;}
	.st54{fill:#FFFFFF;stroke:#0C0C0C;stroke-width:5;stroke-miterlimit:10;}
	.st55{fill:none;stroke:#000000;stroke-width:7;stroke-miterlimit:10;}
	.st56{fill:none;stroke:#CECECE;stroke-width:24;stroke-linecap:round;stroke-linejoin:round;stroke-miterlimit:10;}
</style>

<g id="lamp">
	<path class="st51" d="M116,472.3l166,0.7l0-44.7c0,0,58.1-43.6,58.1-123.7c0-67.3-57-140.5-134.6-140.5
		c-90.4,0-147.4,73.8-147.4,140.5c0,80.1,57.9,123.7,57.9,123.7L116,472.3z"/>
	<line class="st52" x1="200.9" y1="472.7" x2="200.6" y2="357.1"/>
	<circle class="st53" cx="200.6" cy="337" r="20.1"/>
	<rect x="98.8" y="474" class="st53" width="202.5" height="17"/>
	<rect x="115.1" y="493.1" class="st54" width="168" height="29"/>
	<line class="st55" x1="200.6" y1="123.1" x2="200.6" y2="39.1"/>
	<line class="st55" x1="116.9" y1="148.5" x2="91.4" y2="98.5"/>
	<line class="st55" x1="281.2" y1="149.4" x2="305.9" y2="99.4"/>
	<line class="st56" x1="58.1" y1="546.6" x2="340.1" y2="546.6"/>
</g>
</svg>
