<?xml version="1.0" encoding="utf-8"?>
<!-- Generator: Adobe Illustrator 22.1.0, SVG Export Plug-In . SVG Version: 6.00 Build 0)  -->
<svg version="1.1" id="Layer_1" xmlns="http://www.w3.org/2000/svg" xmlns:xlink="http://www.w3.org/1999/xlink" x="0px" y="0px"
	 viewBox="0 0 2647 1024" style="enable-background:new 0 0 2647 1024;" xml:space="preserve">
<style type="text/css">
	body{background:red}
	.st0{fill:#FFFFFF;stroke:#000000;stroke-miterlimit:10;}
	.st1{fill:none;stroke:#264863;stroke-width:9;stroke-linecap:round;stroke-linejoin:round;stroke-miterlimit:10;}
	.st2{fill:#FFFFFF;stroke:#264863;stroke-width:20;stroke-miterlimit:10;}
	.st3{fill:#CDE7F6;}
	.st4{fill:#7DD0FF;stroke:#264863;stroke-width:20;stroke-linecap:round;stroke-linejoin:round;stroke-miterlimit:10;}
	.st5{fill:none;stroke:#264863;stroke-width:14;stroke-miterlimit:10;}
	.st6{fill:none;stroke:#264863;stroke-width:20;stroke-miterlimit:10;}
	.st7{fill:none;stroke:#264863;stroke-width:12;stroke-linecap:round;stroke-linejoin:round;stroke-miterlimit:10;}
	.st8{fill:#FFFFFF;stroke:#264863;stroke-width:20;stroke-linecap:round;stroke-linejoin:round;stroke-miterlimit:10;}
	.st9{fill:none;stroke:#FFFFFF;stroke-width:14;stroke-miterlimit:10;}
	.st10{fill:none;stroke:#264863;stroke-width:16;stroke-linecap:round;stroke-linejoin:round;stroke-miterlimit:10;}
</style>
<path class="st0" d="M1022.5,810.5"/>
<line class="st1" x1="616.5" y1="838.5" x2="737.5" y2="838.5"/>
<line class="st1" x1="820.5" y1="838.5" x2="883.5" y2="838.5"/>
<line class="st1" x1="945.5" y1="838.5" x2="1022.5" y2="838.5"/>
<line class="st1" x1="1071.5" y1="838.5" x2="1919.5" y2="838.5"/>
<line class="st1" x1="677.5" y1="901.5" x2="712.5" y2="901.5"/>
<line class="st1" x1="787.5" y1="901.5" x2="883.5" y2="901.5"/>
<line class="st1" x1="961.5" y1="901.5" x2="1099.5" y2="901.5"/>
<line class="st1" x1="1022.5" y1="865.5" x2="1216.5" y2="865.5"/>
<line class="st1" x1="1141.5" y1="943.5" x2="1306.5" y2="946.5"/>
<line class="st1" x1="1339.5" y1="901.5" x2="1582.5" y2="901.5"/>
<line class="st1" x1="1195.5" y1="901.5" x2="1240.5" y2="901.5"/>
<line class="st1" x1="616.5" y1="982.5" x2="922.5" y2="982.5"/>
<line class="st1" x1="799.5" y1="944.5" x2="1022.5" y2="944.5"/>
<line class="st1" x1="1447.5" y1="865.5" x2="1461.5" y2="865.5"/>
<line class="st1" x1="1461.5" y1="925.5" x2="1519.5" y2="925.5"/>
<line class="st1" x1="1402.5" y1="982.5" x2="1461.5" y2="982.5"/>
<line class="st1" x1="1390.5" y1="944.5" x2="1702.5" y2="944.5"/>
<line class="st1" x1="2044.5" y1="838.5" x2="2142.5" y2="838.5"/>
<line class="st1" x1="1951.5" y1="925.5" x2="2026.5" y2="925.5"/>
<line class="st1" x1="1816.5" y1="901.5" x2="2044.5" y2="901.5"/>
<line class="st1" x1="1816.5" y1="944.5" x2="1930.5" y2="944.5"/>
<line class="st1" x1="1642.5" y1="982.5" x2="1891.5" y2="982.5"/>
<line class="st1" x1="1666.5" y1="865.5" x2="1816.5" y2="865.5"/>
<line class="st1" x1="1666.5" y1="901.5" x2="1678.5" y2="901.5"/>
<line class="st1" x1="2318" y1="838" x2="2582" y2="838"/>
<line class="st1" x1="2261" y1="926" x2="2420" y2="926"/>
<line class="st1" x1="2438" y1="887" x2="2597" y2="887"/>
<line class="st1" x1="2341" y1="982" x2="2597" y2="982"/>
<line class="st1" x1="2543" y1="945" x2="2615" y2="945"/>
<line class="st1" x1="2276" y1="887" x2="2341" y2="887"/>
<polygon class="st2" points="2231,782 2231,1023 1997,1023 1962,782 "/>
<polygon class="st2" points="1970.1,810.5 2261,810 2210,668 1952,668 "/>
<polygon class="st2" points="1643,1023 1702.9,412.5 1919.6,412.5 1997,1023 "/>
<polygon class="st3" points="1881.5,1013 1882,441 1710,441 1712,422 1911,422 1986,1013 "/>
<polyline class="st4" points="1703,402 1703,242 1815.5,242 1920,243 1920,403 "/>
<line class="st5" x1="1811.5" y1="404.5" x2="1810.5" y2="242"/>
<line class="st5" x1="1967" y1="787" x2="1767" y2="1023"/>
<line class="st5" x1="1667" y1="865" x2="1940" y2="577"/>
<line class="st5" x1="1867" y1="413" x2="1686" y2="586"/>
<rect x="1643" y="362" class="st6" width="343" height="60"/>
<line class="st1" x1="2318" y1="838" x2="2582" y2="838"/>
<line class="st1" x1="2261" y1="926" x2="2420" y2="926"/>
<line class="st1" x1="2438" y1="887" x2="2597" y2="887"/>
<line class="st1" x1="2341" y1="982" x2="2597" y2="982"/>
<line class="st1" x1="2543" y1="945" x2="2615" y2="945"/>
<line class="st1" x1="2276" y1="887" x2="2341" y2="887"/>
<path class="st8" d="M1643,242h346l-3-60h-55c0,0-20-108-120-108s-108,114-108,114h-60V242z"/>
<path class="st3" d="M1820,84c0-0.3,57,49,59,148c13,0,99,0,99,0l-1-40c0,0-43,0-53-2C1912,158,1899,93,1820,84z"/>
<circle class="st9" cx="911" cy="241" r="28"/>
<circle class="st9" cx="1344.5" cy="210.5" r="21.5"/>
<circle class="st9" cx="1419.5" cy="578.5" r="17.5"/>
<circle class="st9" cx="2226" cy="534" r="35"/>
<circle class="st9" cx="2465.5" cy="173.5" r="15.5"/>
<circle class="st9" cx="2246" cy="308" r="15"/>
<polygon class="st9" points="1279,290.2 1288.6,309.7 1310.2,312.9 1294.6,328.1 1298.3,349.5 1279,339.4 1259.7,349.5 
	1263.4,328.1 1247.8,312.9 1269.4,309.7 "/>
<polygon class="st9" points="1022.5,462.9 1033,484.1 1056.3,487.5 1039.4,504 1043.4,527.3 1022.5,516.3 1001.6,527.3 1005.6,504 
	988.7,487.5 1012,484.1 "/>
<polygon class="st9" points="2079,197 2089.3,217.8 2112.3,221.2 2095.6,237.4 2099.6,260.3 2079,249.5 2058.4,260.3 2062.4,237.4 
	2045.7,221.2 2068.7,217.8 "/>
<polygon class="st9" points="2465.5,400.9 2471.5,413.2 2485,415.1 2475.3,424.7 2477.6,438.1 2465.5,431.8 2453.4,438.1 
	2455.7,424.7 2446,415.1 2459.5,413.2 "/>
<polygon class="st9" points="673,412.7 679.9,426.6 695.2,428.8 684.1,439.6 686.7,454.9 673,447.7 659.3,454.9 661.9,439.6 
	650.8,428.8 666.1,426.6 "/>
<path class="st10" d="M251,498c0,0-4.9-51.8,37.3-51.2c42.2,0.6,42.2,51.2,42.2,51.2s-3.6-71,56.7-71s53.8,71,53.8,71h62"/>
<path class="st10" d="M820,401c0,0-4.9-51.8,37.3-51.2s42.2,51.2,42.2,51.2s-3.6-71,56.7-71c60.4,0,53.8,71,53.8,71h62"/>
<path class="st10" d="M572,718h63c0,0-59-82,50-111c82-11,67,79,67,79s24-42,60-24s9,56,9,56h141"/>
<path class="st10" d="M2555,379h-63c0,0,59-82-50-111c-82-11-67,79-67,79s-24-42-60-24s-9,56-9,56h-141"/>
</svg>
