<?xml version="1.0" encoding="utf-8"?>
<!-- Generator: Adobe Illustrator 22.1.0, SVG Export Plug-In . SVG Version: 6.00 Build 0)  -->
<svg version="1.1" id="Layer_1" xmlns="http://www.w3.org/2000/svg" xmlns:xlink="http://www.w3.org/1999/xlink" x="0px" y="0px"
	 viewBox="0 0 411 700" style="enable-background:new 0 0 411 700;" xml:space="preserve">
<style type="text/css">
	.st0{display:none;}
	.st1{display:inline;fill:none;stroke:#000000;stroke-width:6;stroke-linecap:round;stroke-linejoin:round;stroke-miterlimit:10;}
	.st2{display:inline;}
	.st3{display:inline;fill:none;stroke:#050505;stroke-width:6;stroke-linecap:round;stroke-linejoin:round;stroke-miterlimit:10;}
	.st4{display:inline;fill:none;stroke:#278EE2;stroke-width:6;stroke-linecap:round;stroke-linejoin:round;stroke-miterlimit:10;}
	.st5{display:inline;fill:#FFBD65;}
	.st6{display:inline;fill:none;stroke:#264863;stroke-width:9;stroke-linecap:round;stroke-linejoin:round;stroke-miterlimit:10;}
	.st7{display:inline;fill:#FFFFFF;stroke:#264863;stroke-width:20;stroke-miterlimit:10;}
	.st8{display:inline;fill:#CDE7F6;}
	
		.st9{display:inline;fill:#7DD0FF;stroke:#264863;stroke-width:20;stroke-linecap:round;stroke-linejoin:round;stroke-miterlimit:10;}
	.st10{display:inline;fill:none;stroke:#264863;stroke-width:14;stroke-miterlimit:10;}
	.st11{display:inline;fill:none;stroke:#264863;stroke-width:20;stroke-miterlimit:10;}
	.st12{display:inline;fill:none;stroke:#264863;stroke-width:12;stroke-linecap:round;stroke-linejoin:round;stroke-miterlimit:10;}
	
		.st13{display:inline;fill:#FFFFFF;stroke:#264863;stroke-width:20;stroke-linecap:round;stroke-linejoin:round;stroke-miterlimit:10;}
	.st14{display:inline;fill:none;stroke:#FFFFFF;stroke-width:14;stroke-miterlimit:10;}
	.st15{display:inline;fill:none;stroke:#264863;stroke-width:16;stroke-linecap:round;stroke-linejoin:round;stroke-miterlimit:10;}
	.st16{fill:#0A0A0A;}
	.st17{display:inline;fill:none;stroke:#0A0A0A;stroke-width:6;stroke-linecap:round;stroke-linejoin:round;stroke-miterlimit:10;}
	.st18{display:inline;fill:none;stroke:#0C0C0C;stroke-width:8;stroke-linecap:round;stroke-linejoin:round;stroke-miterlimit:10;}
	.st19{display:inline;fill:none;stroke:#0C0C0C;stroke-width:7;stroke-miterlimit:10;}
	.st20{display:inline;fill:none;stroke:#0C0C0C;stroke-width:11;stroke-linecap:round;stroke-linejoin:round;stroke-miterlimit:10;}
	.st21{fill:#0C0C0C;}
	.st22{display:inline;fill:none;stroke:#0C0C0C;stroke-width:9;stroke-linecap:round;stroke-linejoin:round;stroke-miterlimit:10;}
	.st23{display:inline;fill:none;stroke:#000000;stroke-width:7;stroke-linecap:round;stroke-linejoin:round;stroke-miterlimit:10;}
	.st24{fill:none;stroke:#0C0C0C;stroke-width:10;stroke-linecap:round;stroke-linejoin:round;stroke-miterlimit:10;}
	.st25{display:inline;fill:none;stroke:#0C0C0C;stroke-width:10;stroke-linecap:round;stroke-linejoin:round;stroke-miterlimit:10;}
	.st26{display:inline;fill:none;stroke:#0C0C0C;stroke-width:6;stroke-linecap:round;stroke-linejoin:round;stroke-miterlimit:10;}
	
		.st27{display:inline;fill:#C7AD8D;stroke:#000000;stroke-width:7;stroke-linecap:round;stroke-linejoin:round;stroke-miterlimit:10;}
	.st28{fill:#FBB94E;}
	.st29{display:inline;fill:#C7AD8D;stroke:#0F0F0F;stroke-width:10;stroke-miterlimit:10;}
	.st30{fill:#C7AD8D;}
	.st31{display:inline;fill:none;stroke:#FFFFFF;stroke-width:20;stroke-linecap:round;stroke-linejoin:round;stroke-miterlimit:10;}
	.st32{display:inline;fill:none;stroke:#FFFFFF;stroke-width:20;stroke-linecap:round;stroke-linejoin:round;stroke-miterlimit:2;}
	.st33{display:inline;fill:none;stroke:#FFFFFF;stroke-width:28;stroke-linecap:round;stroke-linejoin:round;stroke-miterlimit:10;}
	.st34{display:inline;fill:none;stroke:#FFFFFF;stroke-width:22;stroke-linecap:round;stroke-miterlimit:10;}
	.st35{display:inline;fill:#A79077;}
	.st36{display:inline;fill:none;stroke:#000000;stroke-width:8;stroke-linecap:round;stroke-linejoin:round;stroke-miterlimit:10;}
	.st37{display:inline;fill:none;stroke:#0C0C0C;stroke-width:5;stroke-linecap:round;stroke-linejoin:round;stroke-miterlimit:10;}
	.st38{fill:#FFFFFF;stroke:#264862;stroke-width:5;stroke-miterlimit:10;}
	.st39{fill:#F7F7F7;stroke:#264862;stroke-width:10;stroke-linecap:round;stroke-linejoin:round;stroke-miterlimit:10;}
	.st40{fill:#F7F7F7;stroke:#264862;stroke-width:5;stroke-linecap:round;stroke-linejoin:round;stroke-miterlimit:10;}
	.st41{fill:#264862;}
	.st42{fill:none;stroke:#264862;stroke-width:4;stroke-miterlimit:10;}
	.st43{fill:#69CCD6;}
	.st44{fill:none;stroke:#264862;stroke-width:5;stroke-linecap:round;stroke-linejoin:round;stroke-miterlimit:10;}
	.st45{fill:#69CCD6;stroke:#264862;stroke-width:5;stroke-linecap:round;stroke-linejoin:round;stroke-miterlimit:10;}
	.st46{fill:#264862;stroke:#264862;stroke-width:5;stroke-linecap:round;stroke-linejoin:round;stroke-miterlimit:10;}
	.st47{fill:#FFFFFF;stroke:#264862;stroke-width:5;stroke-linecap:round;stroke-linejoin:round;stroke-miterlimit:10;}
	.st48{fill:#CEE8F7;}
	.st49{display:inline;fill:none;stroke:#0C0C0C;stroke-width:12;stroke-linecap:round;stroke-linejoin:round;stroke-miterlimit:10;}
	.st50{display:inline;fill:none;stroke:#0C0C0C;stroke-width:18;stroke-linecap:round;stroke-linejoin:round;stroke-miterlimit:10;}
</style>

<g id="rain" class="st0">
	<line class="st1" x1="2193.5" y1="-919" x2="2193.5" y2="-886"/>
	<g class="st2">
		<path d="M2151.5-1047c60,0,97.5,31.1,118.4,57.2c22.5,28.1,34.1,60.4,36.3,81.5l-309.2,0.8c2.5-23.9,13.2-57.3,36.8-86
			c13.4-16.2,29.3-29,47.4-38C2102.1-1041.8,2125.7-1047,2151.5-1047 M2151.5-1053c-114,0-158.5,98-161,151.5l322-0.9
			C2312-944.7,2265.5-1053,2151.5-1053L2151.5-1053z"/>
	</g>
	<g class="st2">
		<path d="M2156-900l-1,179.7c-0.8,8-3.3,13.8-7.3,17.3c-3.8,3.4-9.3,5-16.7,5c-15.6,0-20.9-5.7-23.1-17h7.9c1.2,6.5,4.3,13,15.2,13
			c14.6,0,15.6-13.2,16-17.5c0-0.1,0-0.3,0-0.4l1-180H2156 M2162-906h-20l-1,186c-0.5,6.5-2,12-10,12s-9-4-10-13h-20
			c1.5,15.5,6,29,30,29c17,0,28-8,30-28L2162-906L2162-906z"/>
	</g>
	<line class="st1" x1="1993.5" y1="-904.5" x2="1993.5" y2="-889.5"/>
	<line class="st1" x1="2309.5" y1="-904.5" x2="2309.5" y2="-888.5"/>
	<line class="st1" x1="2108.5" y1="-919.5" x2="2108.5" y2="-886.5"/>
	<line class="st1" x1="2152.5" y1="-1050" x2="2152.5" y2="-1065"/>
	<path class="st1" d="M2289.5-996.5c0,0,79.4,2.3,98,0c16-2,35.4-39.8,4-54c-31-14-43,27-43,27s12.4-60.6-36-66c-45-5-53,58-53,58"
		/>
	<line class="st3" x1="2361" y1="-1090" x2="2383" y2="-1090"/>
	<line class="st3" x1="2372" y1="-1077" x2="2408" y2="-1077"/>
	<line class="st3" x1="2383" y1="-1065" x2="2437" y2="-1065"/>
	<circle class="st3" cx="2204.5" cy="-1099.5" r="7.5"/>
	<circle class="st3" cx="1982.5" cy="-1029.5" r="7.5"/>
	<line class="st4" x1="2037" y1="-1107" x2="2037" y2="-1085"/>
	<line class="st4" x1="2104" y1="-1088" x2="2104" y2="-1066"/>
	<line class="st4" x1="2243" y1="-1133" x2="2243" y2="-1111"/>
	<line class="st4" x1="2228" y1="-1080" x2="2228" y2="-1058"/>
	<line class="st4" x1="2065" y1="-1058" x2="2065" y2="-1036"/>
	<line class="st4" x1="2157" y1="-1108" x2="2157" y2="-1086"/>
	<line class="st4" x1="2157" y1="-1108" x2="2157" y2="-1086"/>
	<line class="st4" x1="2069" y1="-1129" x2="2069" y2="-1107"/>
	<line class="st4" x1="2334" y1="-1129" x2="2334" y2="-1107"/>
	<line class="st4" x1="2339" y1="-969" x2="2339" y2="-947"/>
	<line class="st4" x1="2301" y1="-983" x2="2301" y2="-961"/>
	<line class="st4" x1="1990" y1="-994" x2="1990" y2="-972"/>
	<line class="st4" x1="1948" y1="-1108" x2="1948" y2="-1086"/>
	<path class="st1" d="M2109-978c0,0-1-71,43-71s42,71,42,71"/>
</g>
<g id="lighthouse" class="st0">
	<rect x="1611" y="-2538" class="st5" width="2641" height="1024"/>
	<line class="st6" x1="2225.5" y1="-1702.5" x2="2346.5" y2="-1702.5"/>
	<line class="st6" x1="2429.5" y1="-1702.5" x2="2492.5" y2="-1702.5"/>
	<line class="st6" x1="2554.5" y1="-1702.5" x2="2631.5" y2="-1702.5"/>
	<line class="st6" x1="2680.5" y1="-1702.5" x2="3528.5" y2="-1702.5"/>
	<line class="st6" x1="2286.5" y1="-1639.5" x2="2321.5" y2="-1639.5"/>
	<line class="st6" x1="2396.5" y1="-1639.5" x2="2492.5" y2="-1639.5"/>
	<line class="st6" x1="2570.5" y1="-1639.5" x2="2708.5" y2="-1639.5"/>
	<line class="st6" x1="2631.5" y1="-1675.5" x2="2825.5" y2="-1675.5"/>
	<line class="st6" x1="2750.5" y1="-1597.5" x2="2915.5" y2="-1594.5"/>
	<line class="st6" x1="2948.5" y1="-1639.5" x2="3191.5" y2="-1639.5"/>
	<line class="st6" x1="2804.5" y1="-1639.5" x2="2849.5" y2="-1639.5"/>
	<line class="st6" x1="2225.5" y1="-1558.5" x2="2531.5" y2="-1558.5"/>
	<line class="st6" x1="2408.5" y1="-1596.5" x2="2631.5" y2="-1596.5"/>
	<line class="st6" x1="3056.5" y1="-1675.5" x2="3070.5" y2="-1675.5"/>
	<line class="st6" x1="3070.5" y1="-1615.5" x2="3128.5" y2="-1615.5"/>
	<line class="st6" x1="3011.5" y1="-1558.5" x2="3070.5" y2="-1558.5"/>
	<line class="st6" x1="2999.5" y1="-1596.5" x2="3311.5" y2="-1596.5"/>
	<line class="st6" x1="3653.5" y1="-1702.5" x2="3751.5" y2="-1702.5"/>
	<line class="st6" x1="3560.5" y1="-1615.5" x2="3635.5" y2="-1615.5"/>
	<line class="st6" x1="3425.5" y1="-1639.5" x2="3653.5" y2="-1639.5"/>
	<line class="st6" x1="3425.5" y1="-1596.5" x2="3539.5" y2="-1596.5"/>
	<line class="st6" x1="3251.5" y1="-1558.5" x2="3500.5" y2="-1558.5"/>
	<line class="st6" x1="3275.5" y1="-1675.5" x2="3425.5" y2="-1675.5"/>
	<line class="st6" x1="3275.5" y1="-1639.5" x2="3287.5" y2="-1639.5"/>
	<polygon class="st7" points="3840,-1759 3840,-1518 3606,-1518 3571,-1759 	"/>
	<polygon class="st7" points="3579.1,-1730.5 3870,-1731 3819,-1873 3561,-1873 	"/>
	<polygon class="st7" points="3252,-1518 3311.9,-2128.5 3528.6,-2128.5 3606,-1518 	"/>
	<polygon class="st8" points="3490.5,-1528 3491,-2100 3319,-2100 3321,-2119 3520,-2119 3595,-1528 	"/>
	<polyline class="st9" points="3312,-2139 3312,-2299 3424.5,-2299 3529,-2298 3529,-2138 	"/>
	<line class="st6" x1="3420.5" y1="-2136.5" x2="3419.5" y2="-2299"/>
	<line class="st10" x1="3576" y1="-1754" x2="3376" y2="-1518"/>
	<line class="st10" x1="3276" y1="-1676" x2="3549" y2="-1964"/>
	<line class="st10" x1="3476" y1="-2128" x2="3295" y2="-1955"/>
	<rect x="3252" y="-2179" class="st11" width="343" height="60"/>
	<line class="st12" x1="3927" y1="-1703" x2="4191" y2="-1703"/>
	<line class="st12" x1="3870" y1="-1615" x2="4029" y2="-1615"/>
	<line class="st12" x1="4047" y1="-1654" x2="4206" y2="-1654"/>
	<line class="st12" x1="3950" y1="-1559" x2="4206" y2="-1559"/>
	<line class="st12" x1="4152" y1="-1596" x2="4224" y2="-1596"/>
	<line class="st12" x1="3885" y1="-1654" x2="3950" y2="-1654"/>
	<path class="st13" d="M3252-2299h346l-3-60h-55c0,0-20-108-120-108s-108,114-108,114h-60V-2299z"/>
	<path class="st8" d="M3429-2457c0-0.3,57,49,59,148c13,0,99,0,99,0l-1-40c0,0-43,0-53-2C3521-2383,3508-2448,3429-2457z"/>
	<circle class="st14" cx="2520" cy="-2300" r="28"/>
	<circle class="st14" cx="2953.5" cy="-2330.5" r="21.5"/>
	<circle class="st14" cx="3028.5" cy="-1962.5" r="17.5"/>
	<circle class="st14" cx="3835" cy="-2007" r="35"/>
	<circle class="st14" cx="4074.5" cy="-2367.5" r="15.5"/>
	<circle class="st14" cx="3855" cy="-2233" r="15"/>
	<polygon class="st14" points="2888,-2250.8 2897.6,-2231.3 2919.2,-2228.1 2903.6,-2212.9 2907.3,-2191.5 2888,-2201.6 
		2868.7,-2191.5 2872.4,-2212.9 2856.8,-2228.1 2878.4,-2231.3 	"/>
	<polygon class="st14" points="2631.5,-2078.1 2642,-2056.9 2665.3,-2053.5 2648.4,-2037 2652.4,-2013.7 2631.5,-2024.7 
		2610.6,-2013.7 2614.6,-2037 2597.7,-2053.5 2621,-2056.9 	"/>
	<polygon class="st14" points="3688,-2344 3698.3,-2323.2 3721.3,-2319.8 3704.6,-2303.6 3708.6,-2280.7 3688,-2291.5 
		3667.4,-2280.7 3671.4,-2303.6 3654.7,-2319.8 3677.7,-2323.2 	"/>
	<polygon class="st14" points="4074.5,-2140.1 4080.5,-2127.8 4094,-2125.9 4084.3,-2116.3 4086.6,-2102.9 4074.5,-2109.2 
		4062.4,-2102.9 4064.7,-2116.3 4055,-2125.9 4068.5,-2127.8 	"/>
	<polygon class="st14" points="2282,-2128.3 2288.9,-2114.4 2304.2,-2112.2 2293.1,-2101.4 2295.7,-2086.1 2282,-2093.3 
		2268.3,-2086.1 2270.9,-2101.4 2259.8,-2112.2 2275.1,-2114.4 	"/>
	<path class="st15" d="M1860-2043c0,0-4.9-51.8,37.3-51.2s42.2,51.2,42.2,51.2s-3.6-71,56.7-71s53.8,71,53.8,71h62"/>
	<path class="st15" d="M2429-2140c0,0-4.9-51.8,37.3-51.2s42.2,51.2,42.2,51.2s-3.6-71,56.7-71s53.8,71,53.8,71h62"/>
	<path class="st15" d="M2181-1823h63c0,0-59-82,50-111c82-11,67,79,67,79s24-42,60-24s9,56,9,56h141"/>
	<path class="st15" d="M4164-2162h-63c0,0,59-82-50-111c-82-11-67,79-67,79s-24-42-60-24s-9,56-9,56h-141"/>
</g>
<g id="Spacecraft" class="st0">
	<g class="st2">
		<path class="st16" d="M3205.6-1068.8c5,0,8.7,1.2,11.3,3.7c10.4,9.8,2.5,39.7-21.5,82c-19.9,35-44.9,67.9-48.7,71.9
			c-26.3,27.7-105.8,95.8-106.6,96.5c-2.4,2-2.8,5.6-1,8.1c0.1,0.2,11.8,16.4,18.6,37.1c7.9,24,6.2,43.7-5,58.6l-54.2-51.4
			l-71.8-68.1l-53.4-50.7c9.3-7.8,20.9-11.7,34.5-11.7c30.4,0,60.8,19.3,61.1,19.5c1,0.6,2.1,1,3.3,1c1.8,0,3.5-0.8,4.7-2.3
			c0.7-0.8,66.6-83.2,92.2-110.3c3-3.2,27.4-24.5,55.5-44.6C3160.7-1055.2,3188.7-1068.8,3205.6-1068.8 M3205.6-1074.8
			c-43.6,0-134.9,79.5-140.9,85.9c-26.2,27.6-92.6,110.7-92.6,110.7s-31.7-20.5-64.3-20.5c-15.3,0-30.7,4.5-43.3,17.7l58,55.1
			l71.8,68.1l58.8,55.7c39.2-41.4-9.2-108-9.2-108s80.2-68.6,107.1-96.9c7.6-8,101.2-132.8,70-162.4
			C3217.1-1073.2,3211.8-1074.8,3205.6-1074.8L3205.6-1074.8z"/>
	</g>
	<path class="st17" d="M3043.1-813.7c-24.8,26.1-53.2,47.4-53.2,47.4"/>
	<path class="st17" d="M2975.6-877.7c-24.8,26.1-44.5,55.6-44.5,55.6"/>
	<g class="st2">
		<path class="st16" d="M3146-1009v6c3.6,0,7,1.4,9.6,3.8c5.6,5.3,5.8,14.2,0.5,19.8c-2.7,2.8-6.3,4.4-10.2,4.4
			c-3.6,0-7-1.4-9.6-3.8c-2.7-2.6-4.3-6-4.4-9.8c-0.1-3.7,1.3-7.3,3.8-10c2.7-2.8,6.3-4.4,10.2-4.4L3146-1009 M3146-1009
			c-5.3,0-10.6,2.1-14.5,6.2c-7.6,8-7.3,20.7,0.7,28.3c3.9,3.7,8.8,5.5,13.8,5.5c5.3,0,10.6-2.1,14.5-6.2c7.6-8,7.3-20.7-0.7-28.3
			C3155.9-1007.2,3150.9-1009,3146-1009L3146-1009z"/>
	</g>
	<line class="st17" x1="2912" y1="-829" x2="2854" y2="-770"/>
	<line class="st17" x1="2893" y1="-736" x2="2835" y2="-677"/>
	<line class="st17" x1="2946" y1="-790" x2="2911" y2="-754"/>
	<line class="st17" x1="2912" y1="-800" x2="2854" y2="-741"/>
	<line class="st17" x1="2970" y1="-772" x2="2912" y2="-713"/>
	<line class="st17" x1="2892" y1="-695" x2="2868" y2="-670"/>
	<line class="st17" x1="2960" y1="-732" x2="2902" y2="-673"/>
	<line class="st17" x1="3001" y1="-742" x2="2943" y2="-683"/>
	<circle class="st17" cx="2990.5" cy="-1013.5" r="18.5"/>
	<circle class="st17" cx="3193.5" cy="-1108.5" r="9.5"/>
	<circle class="st17" cx="3218" cy="-872" r="6"/>
	<circle class="st17" cx="3277" cy="-958" r="11"/>
	<polygon class="st17" points="3009,-1161.2 3017.3,-1144.4 3035.8,-1141.7 3022.4,-1128.6 3025.6,-1110.2 3009,-1118.9 
		2992.4,-1110.2 2995.6,-1128.6 2982.2,-1141.7 3000.7,-1144.4 	"/>
	<polygon class="st17" points="3126,-839.5 3133.5,-824.3 3150.2,-821.9 3138.1,-810.1 3141,-793.4 3126,-801.3 3111,-793.4 
		3113.9,-810.1 3101.8,-821.9 3118.5,-824.3 	"/>
	<polygon class="st17" points="3288,-1155.6 3295.8,-1139.8 3313.3,-1137.2 3300.7,-1124.9 3303.7,-1107.5 3288,-1115.7 
		3272.3,-1107.5 3275.3,-1124.9 3262.7,-1137.2 3280.2,-1139.8 	"/>
</g>
<g id="calculator" class="st0">
	<path class="st18" d="M3712-1074H3976c9.4,0,17,8.6,17,19.3v384.4c0,10.7-7.6,19.3-17,19.3H3712c-9.4,0-17-8.6-17-19.3v-384.4
		C3695-1065.4,3702.6-1074,3712-1074z"/>
	<path class="st19" d="M3939-952h-190c-7.7,0-14-6.3-14-14v-52c0-7.7,6.3-14,14-14h190c7.7,0,14,6.3,14,14v52
		C3953-958.3,3946.7-952,3939-952z"/>
	<circle class="st19" cx="3764.3" cy="-881.3" r="26.5"/>
	<circle class="st19" cx="3843" cy="-881" r="26.5"/>
	<circle class="st19" cx="3923" cy="-881" r="26.5"/>
	<circle class="st19" cx="3764" cy="-801" r="26.5"/>
	<circle class="st19" cx="3843" cy="-801" r="26.5"/>
	<circle class="st19" cx="3923" cy="-801" r="26.5"/>
	<circle class="st19" cx="3764" cy="-721" r="26.5"/>
	<circle class="st19" cx="3843" cy="-722" r="26.5"/>
	<circle class="st19" cx="3923" cy="-722" r="26.5"/>
	<line class="st18" x1="3764" y1="-606" x2="3830" y2="-606"/>
	<line class="st18" x1="3869" y1="-606" x2="4010" y2="-606"/>
	<line class="st18" x1="4042" y1="-606" x2="4086" y2="-606"/>
	<line class="st18" x1="3993" y1="-635" x2="4076" y2="-635"/>
	<circle class="st18" cx="4120.5" cy="-937.5" r="71.5"/>
	<line class="st18" x1="4086" y1="-938" x2="4156" y2="-938"/>
	<line class="st18" x1="4120" y1="-973" x2="4121" y2="-903"/>
	<path class="st18" d="M3993-706c0,0,75.1,5.3,114-48c27-37,17-112,17-112"/>
	<circle class="st18" cx="3611.5" cy="-706.5" r="55.5"/>
	<line class="st18" x1="3660.7" y1="-930" x2="3638.8" y2="-901"/>
	<line class="st18" x1="3662" y1="-901.6" x2="3638.6" y2="-929.4"/>
	<line class="st18" x1="3906.7" y1="-1137" x2="3884.8" y2="-1108"/>
	<line class="st18" x1="3908" y1="-1108.6" x2="3884.6" y2="-1136.4"/>
	<line class="st18" x1="3632" y1="-1144.5" x2="3685" y2="-1144.5"/>
	<line class="st18" x1="3657.7" y1="-1171" x2="3658.5" y2="-1118"/>
	<circle class="st18" cx="3617.5" cy="-1075.5" r="14.5"/>
	<circle class="st18" cx="3978" cy="-1157" r="15"/>
	<line class="st18" x1="3586.1" y1="-683.5" x2="3637.9" y2="-730.5"/>
	<line class="st18" x1="3587.7" y1="-732.3" x2="3635.5" y2="-681.1"/>
</g>
<g id="wallet" class="st0">
	<path class="st18" d="M4048,41h-330c-12.7,0-23-10.3-23-23v-223.5c0-1.1,1.5-1.4,1.9-0.4c2.9,6.5,9.4,16.9,21.1,16.9h330
		c0.6,0,1,0.4,1,1V40C4049,40.6,4048.6,41,4048,41z"/>
	<path class="st18" d="M3695-211c0-12,13-16,13-16l314-65l20,103"/>
	<line class="st18" x1="3719" y1="-229" x2="3727" y2="-192"/>
	<line class="st18" x1="3815.8" y1="-223.2" x2="3986" y2="-258"/>
	<line class="st18" x1="3923.2" y1="-226" x2="3993" y2="-240"/>
	<line class="st18" x1="3819.4" y1="-204.7" x2="3903" y2="-221"/>
	<line class="st18" x1="4032" y1="-241" x2="4062" y2="-241"/>
	<path class="st18" d="M4075-48h-71c-20.4,0-37-16.6-37-37v0c0-20.4,16.6-37,37-37h71V-48z"/>
	<line class="st20" x1="3998" y1="-85" x2="3998" y2="-85"/>
	<line class="st18" x1="4048" y1="41" x2="4140" y2="41"/>
	<line class="st18" x1="3814" y1="70" x2="3888" y2="70"/>
	<line class="st18" x1="3930" y1="70" x2="4094" y2="70"/>
	<line class="st18" x1="4124" y1="70" x2="4158" y2="70"/>
	<line class="st18" x1="3685" y1="-333.5" x2="3738" y2="-333.5"/>
	<line class="st18" x1="3710.7" y1="-360" x2="3711.5" y2="-307"/>
	<line class="st18" x1="3580.6" y1="-40" x2="3618.4" y2="-77"/>
	<line class="st18" x1="3580.4" y1="-76.9" x2="3618" y2="-39.6"/>
	<line class="st18" x1="3991.5" y1="-341.9" x2="4021" y2="-370.7"/>
	<line class="st18" x1="3991.4" y1="-370.6" x2="4020.7" y2="-341.6"/>
	<circle class="st18" cx="3597" cy="-226" r="15"/>
	<circle class="st18" cx="4132" cy="-392" r="8"/>
</g>
<g id="house" class="st0">
	<g class="st2">
		<path class="st21" d="M2160-293.4L2332.4-162h-344.8L2160-293.4 M2160-306l-202,154h404L2160-306L2160-306z"/>
	</g>
	<g class="st2">
		<path class="st21" d="M2160-234c12.1,0,22,9.9,22,22s-9.9,22-22,22s-22-9.9-22-22S2147.9-234,2160-234 M2160-244
			c-17.7,0-32,14.3-32,32s14.3,32,32,32s32-14.3,32-32S2177.7-244,2160-244L2160-244z"/>
	</g>
	<g class="st2">
		<path d="M2058-123V37h-20v-160H2058 M2058.8-133h-21.7c-5.1,0-9.2,4.1-9.2,9.2V37.8c0,5.1,4.1,9.2,9.2,9.2h21.7
			c5.1,0,9.2-4.1,9.2-9.2v-161.7C2068-128.9,2063.9-133,2058.8-133L2058.8-133z"/>
	</g>
	<g class="st2">
		<path d="M2282.5-122.5v160h-20v-160H2282.5 M2282.7-132.5h-20.3c-5.4,0-9.8,4.4-9.8,9.8V37.7c0,5.4,4.4,9.8,9.8,9.8h20.3
			c5.4,0,9.8-4.4,9.8-9.8v-160.3C2292.5-128.1,2288.1-132.5,2282.7-132.5L2282.7-132.5z"/>
	</g>
	<g class="st2">
		<path d="M2205.5-122.5v160h-20v-160H2205.5 M2206.7-132.5h-22.3c-4.9,0-8.8,4-8.8,8.8V38.7c0,4.9,4,8.8,8.8,8.8h22.3
			c4.9,0,8.8-4,8.8-8.8v-162.3C2215.5-128.5,2211.5-132.5,2206.7-132.5L2206.7-132.5z"/>
	</g>
	<g class="st2">
		<path d="M2132.5-122.5v160h-20v-160H2132.5 M2133.3-132.5h-21.7c-5.1,0-9.2,4.1-9.2,9.2V38.3c0,5.1,4.1,9.2,9.2,9.2h21.7
			c5.1,0,9.2-4.1,9.2-9.2v-161.7C2142.5-128.4,2138.4-132.5,2133.3-132.5L2133.3-132.5z"/>
	</g>
	<line class="st22" x1="2364" y1="68" x2="1952" y2="66"/>
	<line class="st23" x1="1930" y1="86" x2="2390" y2="86"/>
	<line class="st23" x1="2411.5" y1="105.5" x2="1909.5" y2="105.5"/>
	<g class="st2">
		<path class="st21" d="M1936-94c23.2,0,42,18.8,42,42s-18.8,42-42,42s-42-18.8-42-42S1912.8-94,1936-94 M1936-104
			c-28.7,0-52,23.3-52,52s23.3,52,52,52s52-23.3,52-52S1964.7-104,1936-104L1936-104z"/>
	</g>
	<g class="st2">
		<path class="st21" d="M2375.5-20c14.1,0,25.5,11.4,25.5,25.5S2389.6,31,2375.5,31S2350,19.6,2350,5.5S2361.4-20,2375.5-20
			 M2375.5-30c-19.6,0-35.5,15.9-35.5,35.5s15.9,35.5,35.5,35.5S2411,25.1,2411,5.5S2395.1-30,2375.5-30L2375.5-30z"/>
	</g>
	<g class="st2">
		<path class="st21" d="M2406-98c5.5,0,10,4.5,10,10s-4.5,10-10,10s-10-4.5-10-10S2400.5-98,2406-98 M2406-104c-8.8,0-16,7.2-16,16
			s7.2,16,16,16s16-7.2,16-16S2414.8-104,2406-104L2406-104z"/>
	</g>
	<g class="st2">
		<line class="st24" x1="2480" y1="-194" x2="2440" y2="-152"/>
	</g>
	<line class="st25" x1="2375" y1="-256" x2="2375" y2="-194"/>
	<line class="st25" x1="1848" y1="-153" x2="1884" y2="-114"/>
	<line class="st25" x1="1838" y1="-52" x2="1871" y2="-52"/>
	<line class="st25" x1="1869" y1="51" x2="1909" y2="5"/>
	<circle class="st25" cx="1913" cy="-176" r="23"/>
	<circle class="st26" cx="1969" cy="-121" r="11"/>
	<line class="st18" x1="2322" y1="-105" x2="2362" y2="-105"/>
	<line class="st18" x1="2341.4" y1="-125" x2="2342" y2="-85"/>
	<line class="st18" x1="1960" y1="-309.5" x2="1998.9" y2="-273.5"/>
	<line class="st18" x1="1996.9" y1="-311.5" x2="1961.5" y2="-272.1"/>
	<g class="st2">
		<path class="st21" d="M2326-302c5.5,0,10,4.5,10,10s-4.5,10-10,10s-10-4.5-10-10S2320.5-302,2326-302 M2326-308
			c-8.8,0-16,7.2-16,16s7.2,16,16,16s16-7.2,16-16S2334.8-308,2326-308L2326-308z"/>
	</g>
</g>
<g id="column" class="st0">
	<path class="st27" d="M1935.5,549.5l-0.5,175.9c0,5.1,2.3,9.9,6.2,13.2c13.2,10.9,46.5,25.9,95.3,25.9c47.4,0,80.6-10.5,94.3-20
		c4.5-3.1,7.2-8.3,7.2-13.8l0.5-181.3"/>
	<path class="st27" d="M1935.5,601.5c0,0,27,25,101,24s102-24,102-24"/>
	<path class="st27" d="M1935.5,647.5c0,0,27,25,101,24s102-24,102-24"/>
	<path class="st27" d="M1935.5,692.5c0,0,27,25,101,24s102-24,102-24"/>
	<g class="st2">
		<path class="st28" d="M2036.5,572.5c-55.8,0-95.8-10.7-102.2-21.1c-0.5-0.8-0.8-1.6-0.8-2.4c0-9.8,39.2-23.5,103-23.5
			s103,13.7,103,23.5S2100.3,572.5,2036.5,572.5z"/>
		<path d="M2036.5,529c27.7,0,53.6,2.7,73.2,7.6c21.4,5.4,26.3,11.2,26.3,12.4c-0.1,1.2-4.9,7.1-26.3,12.4
			c-19.5,4.9-45.5,7.6-73.2,7.6c-25.1,0-49.2-2.3-68.1-6.4c-19.7-4.3-29.1-9.7-31.2-13.1c-0.2-0.4-0.2-0.5-0.2-0.5
			c0.1-1.2,4.9-7.1,26.3-12.4C1982.9,531.7,2008.8,529,2036.5,529 M2036.5,522c-58.8,0-106.5,12.1-106.5,27c0,1.4,0.4,2.8,1.3,4.2
			c8,12.9,52,22.8,105.2,22.8c58.8,0,106.5-12.1,106.5-27S2095.3,522,2036.5,522L2036.5,522z"/>
	</g>
	<path class="st29" d="M2037.5,668.5l-0.5,104.3c0,3,2.3,5.9,6.2,7.8c13.2,6.5,46.6,22.9,95.3,22.9c47.3,0,80.2-13.7,93.8-19.4
		c4.5-1.9,7.2-4.9,7.2-8.2l0.5-107.5"/>
	<path class="st29" d="M2037.5,723.5c0,0,27,25,101,24s102-24,102-24"/>
	<g class="st2">
		<path class="st30" d="M2138.5,695.5c-55.8,0-95.8-10.7-102.2-21.1c-0.5-0.8-0.8-1.6-0.8-2.4c0-9.8,39.2-23.5,103-23.5
			s103,13.7,103,23.5S2202.3,695.5,2138.5,695.5z"/>
		<path d="M2138.5,652c27.7,0,53.6,2.7,73.2,7.6c21.4,5.4,26.3,11.2,26.3,12.4c-0.1,1.2-4.9,7.1-26.3,12.4
			c-19.5,4.9-45.5,7.6-73.2,7.6c-25.1,0-49.2-2.3-68.1-6.4c-19.7-4.3-29.1-9.7-31.2-13.1c-0.2-0.4-0.2-0.5-0.2-0.5
			c0.1-1.2,4.9-7.1,26.3-12.4C2084.9,654.7,2110.8,652,2138.5,652 M2138.5,645c-58.8,0-106.5,12.1-106.5,27c0,1.4,0.4,2.8,1.3,4.2
			c8,12.9,52,22.8,105.2,22.8c58.8,0,106.5-12.1,106.5-27S2197.3,645,2138.5,645L2138.5,645z"/>
	</g>
	<line class="st31" x1="2168" y1="710" x2="2168" y2="731"/>
	<line class="st32" x1="2168" y1="761" x2="2168" y2="785"/>
	<line class="st33" x1="2073" y1="589" x2="2073" y2="604"/>
	<line class="st34" x1="2080" y1="637" x2="2068.7" y2="638.6"/>
	<path class="st35" d="M1940,560.4l30.7,9.8L1970,614c0,0-15-5-19-7s-12-7-12-7l-0.5-38.5"/>
	<path class="st35" d="M1942,610l7,4l7,3l15,5l-1,38c0,0-15-4-19-6s-12-7-12-7v-39"/>
	<path class="st35" d="M1939,654l8,5l10,4l13,4v38c0,0-15-4-19-6s-12-7-12-7l-0.5-38.5"/>
	<path class="st35" d="M1940,700.4l31,13.6l-1,36c0,0-17.1-7.8-21-10c-9-5-10-11-10-11l-0.5-27.5"/>
	<line class="st36" x1="2240" y1="782" x2="2380" y2="782"/>
	<line class="st36" x1="2412" y1="782" x2="2444" y2="782"/>
	<line class="st36" x1="1930" y1="725" x2="1897" y2="725"/>
	<line class="st36" x1="1868" y1="761" x2="1954" y2="761"/>
	<line class="st36" x1="2240" y1="634" x2="2240" y2="604"/>
	<line class="st36" x1="2240" y1="567" x2="2240" y2="484"/>
	<line class="st36" x1="2182" y1="498" x2="2182" y2="406"/>
	<line class="st36" x1="2239" y1="485" x2="2220" y2="506"/>
	<line class="st36" x1="2241" y1="485" x2="2260" y2="506"/>
	<line class="st36" x1="2181" y1="407" x2="2162" y2="428"/>
	<line class="st36" x1="2183" y1="407" x2="2202" y2="428"/>
	<g class="st2">
		<path class="st21" d="M2036.5,434.3l16.7,12.7h-33.3L2036.5,434.3 M2036.5,429.3L2008,451h57L2036.5,429.3L2036.5,429.3z"/>
	</g>
	<g class="st2">
		<path class="st21" d="M2123,395.8l8.1,6.2h-16.2L2123,395.8 M2123,393.3l-14,10.7h28L2123,393.3L2123,393.3z"/>
	</g>
	<line class="st18" x1="2109" y1="466" x2="2139.1" y2="493.9"/>
	<line class="st18" x1="2137.6" y1="464.5" x2="2110.1" y2="495"/>
	<line class="st18" x1="1898.3" y1="391" x2="1896.3" y2="443.9"/>
	<line class="st18" x1="1923.8" y1="417.7" x2="1870.8" y2="416.4"/>
	<circle class="st37" cx="1856.5" cy="521.5" r="9.5"/>
</g>
<g id="mobile">
	<path class="st38" d="M386.7,237.6l-69.4,46.7c-8.8,6-20.2,2.4-25.4-7.9l0,0c-5.1-10.3-2-23.6,6.8-29.6l69.4-46.7
		c8.8-6,20.2-2.4,25.4,7.9l0,0C398.6,218.4,395.6,231.7,386.7,237.6z"/>
	<path class="st39" d="M128.2,106.5h170.3c11.2,0,20.4,9.8,20.4,22v360c0,12.2-9.1,22-20.4,22H152.3c-24.5,0-44.4-21.5-44.4-48v-334
		C107.9,116.3,117,106.5,128.2,106.5z"/>
	<path class="st40" d="M338.4,517.5"/>
	<rect x="109.7" y="406.5" class="st41" width="208.3" height="38.5"/>
	<ellipse class="st42" cx="213.9" cy="474" rx="15.7" ry="17"/>
	<ellipse class="st43" cx="213.9" cy="426" rx="7.4" ry="8"/>
	<rect x="113" y="149" class="st43" width="202.7" height="258"/>
	<ellipse class="st41" cx="213.9" cy="130" rx="3.7" ry="4"/>
	<path class="st44" d="M279.5,406.5H147.7V401c0-27.2,22.3-49.5,49.5-49.5h34c27.4,0,49.8,22.4,49.8,49.8v3.7
		C281,405.8,280.3,406.5,279.5,406.5z"/>
	<path class="st45" d="M215.2,365.5L215.2,365.5c-6.1,0-11.1-5-11.1-11.1v-24.8c0-6.1,5-11.1,11.1-11.1h0c6.1,0,11.1,5,11.1,11.1
		v24.8C226.4,360.5,221.4,365.5,215.2,365.5z"/>
	<path class="st45" d="M218.9,343.5h-9.3c-20.4,0-37-30-37-52v-18.6c0-18.9,14.3-34.4,31.8-34.4h19.7c17.5,0,31.8,15.5,31.8,34.4
		v17.6C256,312.5,239.3,343.5,218.9,343.5z"/>
	<path class="st45" d="M225,320.5c0,6.2-4.7,11.3-10.4,11.3s-10.4-5-10.4-11.3H225z"/>
	<ellipse class="st45" cx="197.7" cy="292.5" rx="4.6" ry="5"/>
	<ellipse class="st45" cx="231" cy="292.5" rx="4.6" ry="5"/>
	<line class="st44" x1="193" y1="278.5" x2="203.2" y2="278.5"/>
	<line class="st44" x1="226.4" y1="278.5" x2="236.5" y2="278.5"/>
	<path class="st46" d="M203.2,244.5c0,0-4.6,9-7.4,13c-7.4,10-25,15-25,15s0.9-16,7.4-24c6.5-8,12-11,17.6-13c5.6-2,9.3-3,13.9-4
		c4.6-1,13.9-1,21.3,1c7.4,2,8.3,2,15.7,6c6.5,5,9.3,11,12,16c3.7,8,0.9,27,0.9,27s2.8,2,4.6,5c1.9,3-1.9,16-1.9,16s-7.4-21-10.2-18
		c-2.8,3-13.3-1.2-19.4-4c-6.5-3-12-8-16.7-12S203.2,244.5,203.2,244.5z"/>
	<ellipse class="st46" cx="214.3" cy="378.5" rx="7.4" ry="8"/>
	<path class="st47" d="M121.5,656.5c0,0,3.9-84.3-2.5-97.3s-38.9-2-51.8-34c-8.3-31-3-201.8-2.8-204.7c0.9-12,10.2-26,22.2-26
		s20.4,11,21.3,32c0.2,4,0,91.9,0,91.9s32.4,15,42.6,32s21.3,60.9,21.3,60.9s80.3-0.6,89.8,0c14.8,1,19.6-3.4,27.8,1
		c1.9,1-3.7,13-11.1,20s-29.6,19-34.3,30c-4.6,11-1.4,93.3-1.4,93.3L121.5,656.5z"/>
	<path class="st38" d="M349.3,309.2l-65.7,41c-8.4,5.2-19.2,2.1-24-7l0,0c-4.8-9-1.9-20.7,6.4-26l65.7-41c8.4-5.2,19.2-2.1,24,7l0,0
		C360.5,292.3,357.6,304,349.3,309.2z"/>
	<path class="st38" d="M335.7,409.9l-40.1,25c-7.7,4.8-17.7,1.9-22.1-6.4h0c-4.5-8.3-1.8-19.1,5.9-23.9l40.1-25
		c7.7-4.8,17.7-1.9,22.1,6.4l0,0C346.1,394.3,343.5,405.1,335.7,409.9z"/>
	<path class="st38" d="M341.5,360.2l-50.9,31.8c-8,5-18.4,2-23.1-6.7v0c-4.6-8.7-1.9-19.9,6.2-24.9l50.9-31.8c8-5,18.4-2,23.1,6.7v0
		C352.3,343.9,349.5,355.2,341.5,360.2z"/>
	<path class="st38" d="M304.3,421.2l-8.7,5c-4.8,2.8-10.9,1.1-13.7-3.7l0,0c-2.8-4.8-1.1-10.9,3.7-13.7l8.7-5
		c4.8-2.8,10.9-1.1,13.7,3.7l0,0C310.7,412.3,309.1,418.4,304.3,421.2z"/>
	<path class="st38" d="M290.3,336.2l-8.7,5c-4.8,2.8-10.9,1.1-13.7-3.7l0,0c-2.8-4.8-1.1-10.9,3.7-13.7l8.7-5
		c4.8-2.8,10.9-1.1,13.7,3.7l0,0C296.7,327.3,295.1,333.4,290.3,336.2z"/>
	<path class="st38" d="M297.3,379.2l-8.7,5c-4.8,2.8-10.9,1.1-13.7-3.7l0,0c-2.8-4.8-1.1-10.9,3.7-13.7l8.7-5
		c4.8-2.8,10.9-1.1,13.7,3.7l0,0C303.7,370.3,302.1,376.4,297.3,379.2z"/>
	<path class="st48" d="M73,305c-4,5-6,14-6,14l-1,25l-1,39v89l2,36l2,16c0,0,4,11,12,16c10,7,36,13,36,13s2,2,5,8c0.9,3.6,3,21,3,40
		c0.8,10.9-0.6,23,0,32c0,11-1,21-1,21h24l-0.5-98.5c0,0-2.5-13.5-12-21s-17.5-4.5-23-11s-22.5-16.5-25-32S73,305,73,305z"/>
	<path class="st48" d="M242,513c0,0,23,13,9,37c0,0,34-20,37-36C284,511,245,515,242,513z"/>
</g>
<g id="apartment" class="st0">
	<polyline class="st22" points="3015,67 3011,-244 3218,-194 3218,67 3017.5,67 2867,67 2868,-75 3012,-155 	"/>
	<line class="st22" x1="3263" y1="-182" x2="2962" y2="-257"/>
	<line class="st22" x1="3007" y1="-152" x2="2833" y2="-56"/>
	<line class="st49" x1="3052" y1="-126" x2="3092" y2="-126"/>
	<line class="st49" x1="3134" y1="-35" x2="3174" y2="-35"/>
	<line class="st49" x1="3134" y1="-80" x2="3174" y2="-80"/>
	<line class="st49" x1="3052" y1="-80" x2="3092" y2="-80"/>
	<line class="st49" x1="3134" y1="-126" x2="3174" y2="-126"/>
	<polyline class="st49" points="3052,63 3052,-35 3109,-35 3109,63 	"/>
	<line class="st50" x1="2937" y1="-70" x2="2937" y2="-70"/>
	<polyline class="st49" points="2898,63 2898,-35 2980,-35 2980,63 	"/>
	<line class="st22" x1="3288.5" y1="66.5" x2="3193.5" y2="66.5"/>
	<line class="st22" x1="3322.5" y1="66.5" x2="3348.5" y2="66.5"/>
	<line class="st22" x1="2911.5" y1="99.5" x2="2746.5" y2="99.5"/>
	<line class="st22" x1="3031.5" y1="99.5" x2="2967.5" y2="99.5"/>
	<line class="st18" x1="2757.8" y1="-188.9" x2="2784.2" y2="-219.1"/>
	<line class="st18" x1="2755.6" y1="-216.7" x2="2786.1" y2="-190.8"/>
	<line class="st18" x1="2929" y1="-343" x2="2969" y2="-343"/>
	<line class="st18" x1="2948.4" y1="-363" x2="2949" y2="-323"/>
	<line class="st18" x1="3226.9" y1="-277.7" x2="3255.1" y2="-306.2"/>
	<line class="st18" x1="3226.4" y1="-305.6" x2="3255.2" y2="-277.9"/>
	<circle class="st18" cx="2873.5" cy="-188.5" r="15.5"/>
	<circle class="st18" cx="3086.5" cy="-334.5" r="14.5"/>
</g>
</svg>
