<?xml version="1.0" encoding="utf-8"?>
<!-- Generator: Adobe Illustrator 22.1.0, SVG Export Plug-In . SVG Version: 6.00 Build 0)  -->
<svg version="1.1" id="Layer_1" xmlns="http://www.w3.org/2000/svg" xmlns:xlink="http://www.w3.org/1999/xlink" x="0px" y="0px"
	 viewBox="0 0 700 700" style="enable-background:new 0 0 700 700;" xml:space="preserve">
<style type="text/css">
	.rain-st13{fill:none;stroke:#000000;stroke-width:6;stroke-linecap:round;stroke-linejoin:round;stroke-miterlimit:10;}
	.rain-st14{fill:none;stroke:#050505;stroke-width:6;stroke-linecap:round;stroke-linejoin:round;stroke-miterlimit:10;}
	.rain-st15{fill:none;stroke:#278EE2;stroke-width:6;stroke-linecap:round;stroke-linejoin:round;stroke-miterlimit:10;}
</style>
<g id="Layer_2">
	<line class="rain-st13" x1="375.5" y1="297" x2="375.5" y2="330"/>
	<g>
		<path d="M333.5,169c60,0,97.5,31.1,118.4,57.2c22.5,28.1,34.1,60.4,36.3,81.5L179,308.5c2.5-23.9,13.2-57.3,36.8-86
			c13.4-16.2,29.3-29,47.4-38C284.1,174.2,307.7,169,333.5,169 M333.5,163c-114,0-158.5,98-161,151.5l322-0.9
			C494,271.3,447.5,163,333.5,163L333.5,163z"/>
	</g>
	<g>
		<path d="M338,316l-1,179.7c-0.8,8-3.3,13.8-7.3,17.3c-3.8,3.4-9.3,5-16.7,5c-15.6,0-20.9-5.7-23.1-17h7.9c1.2,6.5,4.3,13,15.2,13
			c14.6,0,15.6-13.2,16-17.5c0-0.1,0-0.3,0-0.4l1-180H338 M344,310h-20l-1,186c-0.5,6.5-2,12-10,12s-9-4-10-13h-20
			c1.5,15.5,6,29,30,29c17,0,28-8,30-28L344,310L344,310z"/>
	</g>
	<line class="rain-st13" x1="175.5" y1="311.5" x2="175.5" y2="326.5"/>
	<line class="rain-st13" x1="491.5" y1="311.5" x2="491.5" y2="327.5"/>
	<line class="rain-st13" x1="290.5" y1="296.5" x2="290.5" y2="329.5"/>
	<line class="rain-st13" x1="334.5" y1="166" x2="334.5" y2="151"/>
	<path class="rain-st13" d="M471.5,219.5c0,0,79.4,2.3,98,0c16-2,35.4-39.8,4-54c-31-14-43,27-43,27s12.4-60.6-36-66c-45-5-53,58-53,58"
		/>
	<line class="rain-st14" x1="543" y1="126" x2="565" y2="126"/>
	<line class="rain-st14" x1="554" y1="139" x2="590" y2="139"/>
	<line class="rain-st14" x1="565" y1="151" x2="619" y2="151"/>
	<circle class="rain-st14" cx="386.5" cy="116.5" r="7.5"/>
	<circle class="rain-st14" cx="164.5" cy="186.5" r="7.5"/>
	<line class="rain-st15" x1="219" y1="109" x2="219" y2="131"/>
	<line class="rain-st15" x1="286" y1="128" x2="286" y2="150"/>
	<line class="rain-st15" x1="425" y1="83" x2="425" y2="105"/>
	<line class="rain-st15" x1="410" y1="136" x2="410" y2="158"/>
	<line class="rain-st15" x1="247" y1="158" x2="247" y2="180"/>
	<line class="rain-st15" x1="339" y1="108" x2="339" y2="130"/>
	<line class="rain-st15" x1="339" y1="108" x2="339" y2="130"/>
	<line class="rain-st15" x1="251" y1="87" x2="251" y2="109"/>
	<line class="rain-st15" x1="516" y1="87" x2="516" y2="109"/>
	<line class="rain-st15" x1="521" y1="247" x2="521" y2="269"/>
	<line class="rain-st15" x1="483" y1="233" x2="483" y2="255"/>
	<line class="rain-st15" x1="172" y1="222" x2="172" y2="244"/>
	<line class="rain-st15" x1="130" y1="108" x2="130" y2="130"/>
	<path class="rain-st13" d="M291,238c0,0-1-71,43-71s42,71,42,71"/>
</g>
</svg>
