<?xml version="1.0" encoding="utf-8"?>
<!-- Generator: Adobe Illustrator 22.1.0, SVG Export Plug-In . SVG Version: 6.00 Build 0)  -->
<svg version="1.1" id="Spacecraft" xmlns="http://www.w3.org/2000/svg" xmlns:xlink="http://www.w3.org/1999/xlink" x="0px" y="0px"
	 viewBox="0 0 600 600" style="enable-background:new 0 0 700 600;" xml:space="preserve">
<style type="text/css">
	.st16{fill:#0A0A0A;}
	.st17{fill:none;stroke:#0A0A0A;stroke-width:6;stroke-linecap:round;stroke-linejoin:round;stroke-miterlimit:10;}
</style>
<g>
	<g>
		<path class="st16" d="M530.6,147.2c5,0,8.7,1.2,11.3,3.7c10.4,9.8,2.5,39.7-21.5,82c-19.9,35-44.9,67.9-48.7,71.9
			c-26.3,27.7-105.8,95.8-106.6,96.5c-2.4,2-2.8,5.6-1,8.1c0.1,0.2,11.8,16.4,18.6,37.1c7.9,24,6.2,43.7-5,58.6l-54.2-51.4
			l-71.8-68.1l-53.4-50.7c9.3-7.8,20.9-11.7,34.5-11.7c30.4,0,60.8,19.3,61.1,19.5c1,0.6,2.1,1,3.3,1c1.8,0,3.5-0.8,4.7-2.3
			c0.7-0.8,66.6-83.2,92.2-110.3c3-3.2,27.4-24.5,55.5-44.6C485.7,160.8,513.7,147.2,530.6,147.2 M530.6,141.2
			c-43.6,0-134.9,79.5-140.9,85.9c-26.2,27.6-92.6,110.7-92.6,110.7s-31.7-20.5-64.3-20.5c-15.3,0-30.7,4.5-43.3,17.7l58,55.1
			l71.8,68.1l58.8,55.7c39.2-41.4-9.2-108-9.2-108s80.2-68.6,107.1-96.9c7.6-8,101.2-132.8,70-162.4
			C542.1,142.8,536.8,141.2,530.6,141.2L530.6,141.2z"/>
	</g>
	<path class="st17" d="M368.1,402.3c-24.8,26.1-53.2,47.4-53.2,47.4"/>
	<path class="st17" d="M300.6,338.3c-24.8,26.1-44.5,55.6-44.5,55.6"/>
	<g>
		<path class="st16" d="M471,207v6c3.6,0,7,1.4,9.6,3.8c5.6,5.3,5.8,14.2,0.5,19.8c-2.7,2.8-6.3,4.4-10.2,4.4c-3.6,0-7-1.4-9.6-3.8
			c-2.7-2.6-4.3-6-4.4-9.8c-0.1-3.7,1.3-7.3,3.8-10c2.7-2.8,6.3-4.4,10.2-4.4L471,207 M471,207c-5.3,0-10.6,2.1-14.5,6.2
			c-7.6,8-7.3,20.7,0.7,28.3c3.9,3.7,8.8,5.5,13.8,5.5c5.3,0,10.6-2.1,14.5-6.2c7.6-8,7.3-20.7-0.7-28.3
			C480.9,208.8,475.9,207,471,207L471,207z"/>
	</g>
	<line class="st17" x1="237" y1="387" x2="179" y2="446"/>
	<line class="st17" x1="218" y1="480" x2="160" y2="539"/>
	<line class="st17" x1="271" y1="426" x2="236" y2="462"/>
	<line class="st17" x1="237" y1="416" x2="179" y2="475"/>
	<line class="st17" x1="295" y1="444" x2="237" y2="503"/>
	<line class="st17" x1="217" y1="521" x2="193" y2="546"/>
	<line class="st17" x1="285" y1="484" x2="227" y2="543"/>
	<line class="st17" x1="326" y1="474" x2="268" y2="533"/>
	<circle class="st17" cx="315.5" cy="202.5" r="18.5"/>
	<circle class="st17" cx="518.5" cy="107.5" r="9.5"/>
	<circle class="st17" cx="543" cy="344" r="6"/>
	<circle class="st17" cx="602" cy="258" r="11"/>
	<polygon class="st17" points="334,54.8 342.3,71.6 360.8,74.3 347.4,87.4 350.6,105.8 334,97.1 317.4,105.8 320.6,87.4 307.2,74.3 
		325.7,71.6 	"/>
	<polygon class="st17" points="451,376.5 458.5,391.7 475.2,394.1 463.1,405.9 466,422.6 451,414.7 436,422.6 438.9,405.9 
		426.8,394.1 443.5,391.7 	"/>
	<polygon class="st17" points="613,60.4 620.8,76.2 638.3,78.8 625.7,91.1 628.7,108.5 613,100.3 597.3,108.5 600.3,91.1 
		587.7,78.8 605.2,76.2 	"/>
</g>
</svg>
