<?xml version="1.0" encoding="utf-8"?>
<!-- Generator: Adobe Illustrator 22.1.0, SVG Export Plug-In . SVG Version: 6.00 Build 0)  -->
<svg version="1.1" id="wallet" xmlns="http://www.w3.org/2000/svg" xmlns:xlink="http://www.w3.org/1999/xlink" x="0px" y="0px"
	 viewBox="0 0 600 600" style="enable-background:new 0 0 600 600;" xml:space="preserve">
<style type="text/css">
	.st20{fill:none;stroke:#0C0C0C;stroke-width:8;stroke-linecap:round;stroke-linejoin:round;stroke-miterlimit:10;}
	.st21{fill:none;stroke:#0C0C0C;stroke-width:11;stroke-linecap:round;stroke-linejoin:round;stroke-miterlimit:10;}

	
</style>

<g>
	<path class="st20" d="M525,495H195c-12.7,0-23-10.3-23-23V248.5c0-1.1,1.5-1.4,1.9-0.4c2.9,6.5,9.4,16.9,21.1,16.9h330
		c0.6,0,1,0.4,1,1v228C526,494.6,525.6,495,525,495z"/>
	<path class="st20" d="M172,243c0-12,13-16,13-16l314-65l20,103"/>
	<line class="st20" x1="196" y1="225" x2="204" y2="262"/>
	<line class="st20" x1="292.8" y1="230.8" x2="463" y2="196"/>
	<line class="st20" x1="400.2" y1="228" x2="470" y2="214"/>
	<line class="st20" x1="296.4" y1="249.3" x2="380" y2="233"/>
	<line class="st20" x1="509" y1="213" x2="539" y2="213"/>
	<path class="st20" d="M552,406h-71c-20.4,0-37-16.6-37-37v0c0-20.4,16.6-37,37-37h71V406z"/>
	<line class="st21" x1="475" y1="369" x2="475" y2="369"/>
	<line class="st20" x1="525" y1="495" x2="617" y2="495"/>
	<line class="st20" x1="291" y1="524" x2="365" y2="524"/>
	<line class="st20" x1="407" y1="524" x2="571" y2="524"/>
	<line class="st20" x1="601" y1="524" x2="635" y2="524"/>
	<line class="st20" x1="162" y1="120.5" x2="215" y2="120.5"/>
	<line class="st20" x1="187.7" y1="94" x2="188.5" y2="147"/>
	<line class="st20" x1="57.6" y1="414" x2="95.4" y2="377"/>
	<line class="st20" x1="57.4" y1="377.1" x2="95" y2="414.4"/>
	<line class="st20" x1="468.5" y1="112.1" x2="498" y2="83.3"/>
	<line class="st20" x1="468.4" y1="83.4" x2="497.7" y2="112.4"/>
	<circle class="st20" cx="74" cy="228" r="15"/>
	<circle class="st20" cx="609" cy="62" r="8"/>
</g>

</svg>
